<?xml version="1.0" encoding="UTF-8"?>
<svg xmlns="http://www.w3.org/2000/svg" viewBox="0 0 1024 1024" role="img" aria-label="Gedächtnis-Palast 1:1">
  <title>Gedächtnis-Palast 1:1</title>
  <style>
    :root { color: #000; }
    @media (prefers-color-scheme: dark) { :root { color: #fff; } }
  </style>
  <g fill="none" stroke="currentColor" stroke-width="3" stroke-linejoin="round" stroke-linecap="round">
    <path d="M 619.00 866.50 L 585.00 865.50 L 558.00 857.50 L 545.00 850.50 L 533.00 841.50 L 520.50 828.00 L 513.00 815.50 L 510.50 816.00 L 502.50 829.00 L 487.00 844.50 L 477.00 851.50 L 455.00 861.50 L 432.00 866.50 L 406.00 866.50 L 389.00 863.50 L 377.00 859.50 L 366.00 854.50 L 351.00 844.50 L 337.50 831.00 L 332.00 822.50 L 320.00 822.50 L 298.00 816.50 L 284.00 809.50 L 272.00 800.50 L 260.50 788.00 L 254.50 779.00 L 249.50 769.00 L 247.50 761.00 L 225.00 750.50 L 207.50 734.00 L 197.50 717.00 L 192.50 700.00 L 191.50 674.00 L 193.50 664.00 L 201.50 645.00 L 211.50 633.00 L 211.50 609.00 L 218.50 587.00 L 233.50 564.00 L 246.00 551.50 L 259.50 542.00 L 259.50 311.00 L 258.00 309.50 L 253.00 309.50 L 248.50 305.00 L 248.50 299.00 L 250.50 295.00 L 301.50 209.00 L 307.00 203.50 L 314.00 203.50 L 322.50 215.00 L 371.50 301.00 L 370.50 306.00 L 368.00 308.50 L 362.50 310.00 L 362.50 360.00 L 387.00 360.50 L 387.50 334.00 L 393.00 329.50 L 433.00 329.50 L 433.50 239.00 L 421.00 237.50 L 417.50 232.00 L 417.50 229.00 L 502.50 122.00 L 509.00 116.50 L 515.00 116.50 L 518.50 119.00 L 605.50 227.00 L 606.50 231.00 L 603.00 237.50 L 591.00 238.50 L 589.50 240.00 L 590.00 329.50 L 631.00 329.50 L 636.50 335.00 L 636.50 360.00 L 661.50 360.00 L 661.50 310.00 L 654.50 307.00 L 653.50 299.00 L 703.50 211.00 L 710.00 203.50 L 717.00 203.50 L 720.50 207.00 L 773.50 295.00 L 776.50 302.00 L 775.50 306.00 L 772.00 309.50 L 765.50 310.00 L 765.50 543.00 L 776.00 550.50 L 791.50 566.00 L 800.50 579.00 L 810.50 603.00 L 812.50 615.00 L 812.50 634.00 L 819.50 642.00 L 827.50 656.00 L 832.50 676.00 L 832.50 694.00 L 830.50 705.00 L 821.50 726.00 L 814.50 736.00 L 800.00 749.50 L 786.00 757.50 L 780.00 758.50 L 776.50 761.00 L 774.50 769.00 L 768.50 780.00 L 761.50 790.00 L 749.00 802.50 L 738.00 810.50 L 721.00 818.50 L 692.00 823.50 L 685.50 833.00 L 674.00 844.50 L 664.00 851.50 L 650.00 858.50 L 639.00 862.50 L 619.00 866.50 Z"/>
    <path d="M 578.50 222.00 L 577.50 218.00 L 513.00 138.50 L 511.00 138.50 L 504.50 146.00 L 445.50 220.00 L 446.00 222.50 L 578.50 222.00 Z"/>
    <path d="M 347.50 294.00 L 345.50 287.00 L 312.50 229.00 L 309.00 227.50 L 273.50 288.00 L 271.50 294.00 L 347.50 294.00 Z"/>
    <path d="M 752.50 294.00 L 748.50 285.00 L 717.50 233.00 L 714.00 228.50 L 712.00 228.50 L 678.50 288.00 L 676.50 294.00 L 752.50 294.00 Z"/>
    <path d="M 571.50 360.00 L 571.50 333.00 L 573.50 330.00 L 573.00 238.50 L 449.50 239.00 L 449.50 329.00 L 453.50 334.00 L 454.00 360.50 L 480.00 360.50 L 479.50 340.00 L 481.50 332.00 L 485.00 329.50 L 538.00 329.50 L 543.50 335.00 L 543.50 359.00 L 545.00 360.50 L 571.50 360.00 Z"/>
    <path d="M 525.00 310.50 L 499.00 310.50 L 494.50 307.00 L 494.50 271.00 L 496.50 267.00 L 505.00 259.50 L 519.00 259.50 L 526.50 266.00 L 529.50 272.00 L 529.50 306.00 L 525.00 310.50 Z"/>
    <path d="M 279.50 533.00 L 293.00 527.50 L 311.00 523.50 L 346.50 522.00 L 346.50 312.00 L 345.00 310.50 L 275.50 311.00 L 275.50 533.00 L 279.50 533.00 Z"/>
    <path d="M 749.50 533.00 L 749.50 311.00 L 678.00 310.50 L 677.50 522.00 L 712.00 523.50 L 734.00 528.50 L 746.00 533.50 L 749.50 533.00 Z"/>
    <path d="M 311.00 381.50 L 305.00 381.50 L 299.50 377.00 L 299.50 338.00 L 304.00 333.50 L 312.00 333.50 L 317.50 339.00 L 317.50 377.00 L 311.00 381.50 Z"/>
    <path d="M 715.00 381.50 L 709.00 380.50 L 706.50 377.00 L 705.50 339.00 L 711.00 333.50 L 719.00 333.50 L 723.50 338.00 L 723.50 377.00 L 720.00 380.50 L 715.00 381.50 Z"/>
    <path d="M 627.50 536.00 L 649.00 527.50 L 661.50 525.00 L 661.50 377.00 L 625.00 375.50 L 620.50 369.00 L 620.00 344.50 L 588.00 344.50 L 587.50 370.00 L 581.00 376.50 L 533.00 376.50 L 527.50 370.00 L 527.00 344.50 L 497.00 344.50 L 496.50 368.00 L 495.50 372.00 L 490.00 376.50 L 442.00 376.50 L 437.50 372.00 L 436.50 368.00 L 436.00 344.50 L 404.00 344.50 L 403.50 371.00 L 400.00 375.50 L 362.50 377.00 L 363.00 524.50 L 384.00 529.50 L 398.00 536.50 L 401.00 536.50 L 408.00 531.50 L 423.00 524.50 L 440.00 520.50 L 455.00 520.50 L 456.50 519.00 L 455.50 464.00 L 457.50 447.00 L 461.50 436.00 L 466.50 428.00 L 482.00 413.50 L 499.00 406.50 L 520.00 405.50 L 536.00 410.50 L 547.00 417.50 L 555.50 426.00 L 563.50 440.00 L 567.50 456.00 L 567.50 520.00 L 582.00 520.50 L 597.00 523.50 L 611.00 528.50 L 623.00 536.50 L 627.50 536.00 Z"/>
    <path d="M 428.50 851.00 L 454.00 845.50 L 467.00 839.50 L 480.00 830.50 L 494.50 814.00 L 499.50 804.00 L 504.50 784.00 L 504.50 571.00 L 501.50 562.00 L 497.50 556.00 L 487.00 546.50 L 475.00 540.50 L 458.00 536.50 L 437.00 537.50 L 424.00 541.50 L 407.00 551.50 L 394.50 564.00 L 386.50 575.00 L 379.50 589.00 L 374.50 609.00 L 375.50 631.00 L 374.50 635.00 L 369.00 639.50 L 363.00 638.50 L 358.50 632.00 L 358.50 609.00 L 360.50 601.00 L 360.50 596.00 L 359.00 594.50 L 345.00 591.50 L 334.00 591.50 L 320.00 595.50 L 307.00 603.50 L 299.50 612.00 L 293.50 625.00 L 292.50 637.00 L 296.50 650.00 L 307.00 661.50 L 314.00 665.50 L 323.00 667.50 L 344.00 665.50 L 348.50 670.00 L 348.50 677.00 L 345.00 680.50 L 339.00 682.50 L 321.00 683.50 L 308.00 680.50 L 295.00 673.50 L 281.00 681.50 L 270.50 692.00 L 262.50 706.00 L 258.50 721.00 L 258.50 743.00 L 262.50 759.00 L 273.50 779.00 L 286.00 791.50 L 305.00 802.50 L 315.00 805.50 L 324.50 806.00 L 323.50 799.00 L 315.00 793.50 L 302.50 779.00 L 297.50 765.00 L 297.50 747.00 L 300.50 737.00 L 306.00 730.50 L 312.00 730.50 L 317.50 736.00 L 317.50 740.00 L 313.50 749.00 L 313.50 763.00 L 315.50 769.00 L 319.50 776.00 L 325.00 781.50 L 336.50 787.00 L 340.50 806.00 L 349.50 821.00 L 367.00 837.50 L 385.00 846.50 L 408.00 851.50 L 428.50 851.00 Z"/>
    <path d="M 613.50 851.00 L 627.00 849.50 L 643.00 844.50 L 662.00 833.50 L 675.50 820.00 L 683.50 805.00 L 686.50 794.00 L 686.50 788.00 L 689.00 785.50 L 699.00 781.50 L 705.50 775.00 L 709.50 768.00 L 711.50 752.00 L 706.50 736.00 L 711.00 731.50 L 716.00 730.50 L 722.50 735.00 L 726.50 746.00 L 727.50 760.00 L 725.50 770.00 L 720.50 781.00 L 711.00 792.50 L 700.50 799.00 L 699.50 806.00 L 703.00 806.50 L 716.00 803.50 L 729.00 797.50 L 739.00 790.50 L 751.50 777.00 L 761.50 758.00 L 765.50 741.00 L 765.50 721.00 L 761.50 706.00 L 756.50 696.00 L 744.00 682.50 L 735.00 676.50 L 731.00 674.50 L 726.00 674.50 L 718.00 679.50 L 709.00 682.50 L 696.00 683.50 L 683.00 680.50 L 678.50 676.00 L 678.50 670.00 L 683.00 665.50 L 700.00 667.50 L 712.00 664.50 L 717.00 661.50 L 727.50 650.00 L 731.50 639.00 L 731.50 629.00 L 725.50 613.00 L 717.00 603.50 L 702.00 594.50 L 690.00 591.50 L 678.00 591.50 L 664.00 594.50 L 663.50 598.00 L 666.50 611.00 L 666.50 630.00 L 662.00 637.50 L 654.00 637.50 L 649.50 632.00 L 650.50 613.00 L 647.50 597.00 L 640.50 579.00 L 630.50 564.00 L 614.00 548.50 L 601.00 541.50 L 580.00 536.50 L 565.00 536.50 L 546.00 541.50 L 537.00 546.50 L 526.50 556.00 L 520.50 568.00 L 520.00 616.50 L 522.00 616.50 L 530.00 607.50 L 539.00 601.50 L 566.00 592.50 L 577.00 586.50 L 581.00 585.50 L 586.00 587.50 L 588.50 593.00 L 587.50 598.00 L 581.00 603.50 L 552.00 613.50 L 540.00 620.50 L 529.50 631.00 L 523.50 641.00 L 519.50 660.00 L 520.50 789.00 L 527.50 810.00 L 537.50 824.00 L 552.00 836.50 L 569.00 845.50 L 578.00 848.50 L 595.00 851.50 L 613.50 851.00 Z"/>
    <path d="M 242.50 740.00 L 242.50 718.00 L 247.50 700.00 L 251.50 692.00 L 258.50 682.00 L 271.00 669.50 L 284.50 662.00 L 279.50 650.00 L 276.50 631.00 L 279.50 616.00 L 285.50 604.00 L 299.00 589.50 L 317.00 579.50 L 337.00 575.50 L 352.00 576.50 L 361.00 579.50 L 366.00 579.50 L 374.50 564.00 L 386.50 550.00 L 386.00 547.50 L 359.00 539.50 L 344.00 537.50 L 324.00 537.50 L 305.00 540.50 L 288.00 545.50 L 271.00 553.50 L 257.00 563.50 L 241.50 580.00 L 231.50 598.00 L 227.50 610.00 L 226.50 621.00 L 231.00 621.50 L 236.00 618.50 L 248.00 615.50 L 252.50 619.00 L 253.50 625.00 L 250.00 630.50 L 230.00 638.50 L 217.50 650.00 L 212.50 658.00 L 207.50 674.00 L 207.50 694.00 L 212.50 712.00 L 220.50 725.00 L 234.00 737.50 L 239.00 740.50 L 242.50 740.00 Z"/>
    <path d="M 783.50 741.00 L 795.00 733.50 L 805.50 722.00 L 812.50 709.00 L 816.50 693.00 L 815.50 672.00 L 812.50 662.00 L 806.50 651.00 L 794.00 638.50 L 787.00 634.50 L 774.00 630.50 L 770.50 626.00 L 770.50 621.00 L 774.00 616.50 L 782.00 616.50 L 793.00 621.50 L 796.50 621.00 L 794.50 605.00 L 783.50 582.00 L 768.00 564.50 L 751.00 552.50 L 739.00 546.50 L 720.00 540.50 L 701.00 537.50 L 683.00 537.50 L 662.00 540.50 L 641.00 547.50 L 639.50 551.00 L 653.50 569.00 L 658.00 579.50 L 680.00 575.50 L 701.00 577.50 L 710.00 580.50 L 722.00 587.50 L 738.50 604.00 L 743.50 613.00 L 747.50 630.00 L 746.50 644.00 L 739.50 662.00 L 758.00 673.50 L 772.50 692.00 L 779.50 709.00 L 782.50 729.00 L 780.50 741.00 L 783.50 741.00 Z"/>
    <path d="M 411.00 710.50 L 403.00 709.50 L 399.50 704.00 L 399.50 689.00 L 401.50 680.00 L 408.50 666.00 L 419.00 655.50 L 425.00 652.50 L 426.50 649.00 L 423.00 647.50 L 415.50 640.00 L 411.50 633.00 L 408.50 621.00 L 409.50 612.00 L 416.50 598.00 L 425.00 590.50 L 437.00 585.50 L 450.00 585.50 L 454.50 590.00 L 454.50 596.00 L 450.00 600.50 L 445.00 600.50 L 434.00 604.50 L 426.50 614.00 L 425.50 623.00 L 428.50 630.00 L 436.00 637.50 L 446.00 642.50 L 454.00 644.50 L 467.00 651.50 L 473.50 658.00 L 474.50 666.00 L 470.00 670.50 L 464.00 671.50 L 453.00 663.50 L 440.00 662.50 L 428.00 668.50 L 422.50 674.00 L 418.50 681.00 L 415.50 693.00 L 415.50 706.00 L 411.00 710.50 Z"/>
    <path d="M 555.00 737.50 L 549.00 735.50 L 546.50 732.00 L 547.50 718.00 L 554.50 702.00 L 565.00 690.50 L 574.00 684.50 L 590.00 679.50 L 606.50 679.00 L 598.50 659.00 L 597.50 641.00 L 604.00 636.50 L 611.00 638.50 L 613.50 645.00 L 614.50 657.00 L 619.50 669.00 L 632.00 683.50 L 646.00 691.50 L 652.50 697.00 L 652.50 705.00 L 649.00 708.50 L 641.00 708.50 L 624.00 698.50 L 614.00 695.50 L 598.00 694.50 L 587.00 696.50 L 577.00 701.50 L 568.50 710.00 L 563.50 721.00 L 562.50 731.00 L 558.00 736.50 L 555.00 737.50 Z"/>
    <path d="M 435.00 820.50 L 419.00 820.50 L 413.00 818.50 L 402.00 812.50 L 395.50 806.00 L 389.50 795.00 L 388.50 790.00 L 388.50 777.00 L 390.50 770.00 L 393.50 766.00 L 393.50 763.00 L 372.00 757.50 L 354.00 745.50 L 339.50 726.00 L 338.50 720.00 L 342.00 715.50 L 351.00 715.50 L 361.50 731.00 L 369.00 737.50 L 377.00 742.50 L 394.00 747.50 L 414.00 747.50 L 432.00 740.50 L 444.00 730.50 L 450.00 730.50 L 453.50 733.00 L 455.50 737.00 L 454.50 741.00 L 448.00 748.50 L 432.00 758.50 L 413.00 765.50 L 408.50 770.00 L 404.50 778.00 L 405.50 791.00 L 414.00 801.50 L 422.00 804.50 L 434.00 804.50 L 443.00 801.50 L 449.50 805.00 L 449.50 814.00 L 445.00 817.50 L 435.00 820.50 Z"/>
    <path d="M 643.00 815.50 L 637.00 815.50 L 632.50 810.00 L 632.50 805.00 L 636.50 798.00 L 638.50 790.00 L 637.50 779.00 L 633.50 771.00 L 627.00 765.50 L 618.00 761.50 L 592.00 761.50 L 588.50 757.00 L 588.50 752.00 L 592.00 746.50 L 598.00 744.50 L 617.00 744.50 L 625.00 746.50 L 640.00 754.50 L 648.50 764.00 L 653.50 776.00 L 654.50 793.00 L 648.50 811.00 L 643.00 815.50 Z"/>
  </g>
</svg>
